<?xml version="1.0" standalone="no"?>
<!DOCTYPE svg PUBLIC "-//W3C//DTD SVG 20010904//EN"
 "http://www.w3.org/TR/2001/REC-SVG-20010904/DTD/svg10.dtd">
<svg version="1.0" xmlns="http://www.w3.org/2000/svg"
 width="512.000000pt" height="512.000000pt" viewBox="0 0 512.000000 512.000000"
 preserveAspectRatio="xMidYMid meet">

<g transform="translate(0.000000,512.000000) scale(0.100000,-0.100000)"
fill="#000000" stroke="none">
<path d="M2233 4786 c-376 -72 -666 -354 -766 -746 -20 -78 -22 -109 -22 -380
1 -272 3 -301 23 -375 42 -154 162 -360 266 -454 25 -24 26 -29 26 -130 0
-120 -14 -160 -69 -198 -18 -12 -136 -56 -264 -98 -143 -48 -260 -93 -305
-118 -148 -83 -272 -254 -307 -422 -22 -103 -22 -935 0 -1018 45 -173 178
-307 350 -352 50 -13 150 -15 628 -15 l569 0 -50 57 c-57 66 -118 159 -146
220 l-19 42 -463 3 c-449 3 -463 4 -490 24 -15 11 -37 33 -48 48 -20 27 -21
41 -24 463 -3 484 -1 503 61 585 55 73 109 100 359 183 128 43 255 89 282 103
110 54 207 179 241 307 18 72 22 394 4 428 -6 12 -50 61 -98 108 -96 96 -140
162 -179 271 -25 70 -27 82 -30 323 -4 292 5 353 69 484 72 146 221 272 379
322 91 28 226 35 319 15 185 -39 347 -169 434 -346 69 -142 80 -210 75 -493
-4 -221 -5 -236 -30 -305 -39 -109 -83 -175 -179 -271 -48 -47 -92 -96 -98
-108 -17 -34 -14 -355 4 -426 22 -85 61 -154 121 -217 71 -75 121 -100 330
-170 l174 -59 0 169 0 168 -112 37 c-185 61 -208 90 -208 255 l0 102 55 60
c108 117 195 272 237 423 21 75 22 101 23 390 0 264 -3 320 -18 379 -48 188
-126 324 -262 461 -136 136 -277 216 -456 260 -90 22 -296 28 -386 11z"/>
<path d="M3775 3186 c-37 -16 -70 -52 -84 -89 -8 -19 -11 -262 -11 -747 l0
-719 -85 40 c-342 160 -771 95 -1019 -155 -233 -233 -233 -559 0 -792 274
-276 762 -323 1117 -107 89 54 195 164 239 249 69 131 68 112 68 972 0 424 3
772 8 772 15 0 238 -198 288 -256 106 -123 159 -231 175 -357 6 -45 13 -98 16
-117 6 -46 67 -106 116 -115 82 -16 164 29 188 102 15 47 6 173 -20 276 -63
246 -221 444 -585 738 -172 138 -180 146 -191 192 -26 102 -128 154 -220 113z
m-370 -1780 c335 -112 369 -403 63 -546 -144 -67 -318 -77 -473 -25 -273 90
-358 317 -178 475 48 43 163 97 244 115 97 22 244 14 344 -19z"/>
</g>
</svg>
