<svg width="23" height="31" viewBox="0 0 23 31" fill="none" xmlns="http://www.w3.org/2000/svg">
    <path d="M15.4999 0H6.54046C1.77697 0 0 1.77697 0 6.54046V24.4595C0 29.223 1.77697 31 6.54046 31H15.4999C20.2634 31 22.0404 29.223 22.0404 24.4595V6.54046C22.0404 1.77697 20.2634 0 15.4999 0ZM11.0202 6.54046C12.2596 6.54046 13.26 7.54094 13.26 8.78034C13.26 10.0197 12.2596 11.0202 11.0202 11.0202C9.78076 11.0202 8.78028 10.0197 8.78028 8.78034C8.78028 7.54094 9.78076 6.54046 11.0202 6.54046ZM11.0202 24.4595C8.54136 24.4595 6.54046 22.4586 6.54046 19.9798C6.54046 17.501 8.54136 15.5 11.0202 15.5C13.499 15.5 15.4999 17.501 15.4999 19.9798C15.4999 22.4586 13.499 24.4595 11.0202 24.4595Z"
          fill="#000000"/>
</svg>
