<svg width="34" height="31" viewBox="0 0 34 31" fill="none" xmlns="http://www.w3.org/2000/svg">
    <path d="M30.95 9.31553L20.2804 1.19353C18.1953 -0.387472 14.9374 -0.402972 12.8686 1.17803L2.1989 9.31553C0.667684 10.478 -0.260821 12.803 0.0649706 14.632L2.11746 26.319C2.58985 28.9385 5.14731 31 7.93283 31H25.1998C27.9528 31 30.5591 28.892 31.0315 26.3035L33.084 14.6165C33.3772 12.803 32.4487 10.478 30.95 9.31553ZM17.7881 24.8C17.7881 25.4355 17.2342 25.9625 16.5664 25.9625C15.8985 25.9625 15.3446 25.4355 15.3446 24.8V20.15C15.3446 19.5145 15.8985 18.9875 16.5664 18.9875C17.2342 18.9875 17.7881 19.5145 17.7881 20.15V24.8Z"
          fill="#5F04A7" fill-opacity="0.8"/>
</svg>
