<svg width="512" height="512" viewBox="0 0 512 512" fill="none" xmlns="http://www.w3.org/2000/svg">
    <path d="M208.694 295.116C193.479 295.116 181.349 307.453 181.349 322.667C181.349 337.882 193.685 350.012 208.694 350.012C223.908 350.012 236.244 337.676 236.244 322.667C236.244 307.453 223.908 295.116 208.694 295.116Z"
          fill="#5F04A7"/>
    <path d="M342.75 50H170.455C95.6157 50 51 94.6157 51 169.455V341.544C51 416.589 95.6157 461.205 170.455 461.205H342.544C417.384 461.205 461.999 416.589 461.999 341.75V169.455C462.205 94.6157 417.589 50 342.75 50ZM361.871 210.37C361.871 222.912 356.525 234.014 347.479 240.593C341.722 244.706 334.731 246.967 327.33 246.967C323.012 246.967 318.694 246.145 314.171 244.706L267.088 229.08C266.883 229.08 266.471 228.874 266.266 228.669V322.423C266.266 354.086 240.36 379.992 208.697 379.992C177.034 379.992 151.128 354.086 151.128 322.423C151.128 290.76 177.034 264.855 208.697 264.855C218.772 264.855 228.024 267.733 236.248 272.051V186.314V173.773C236.248 161.231 241.593 150.128 250.64 143.549C259.892 136.97 272.023 135.325 283.948 139.437L331.031 155.063C348.712 161.025 362.076 179.53 362.076 198.034V210.37H361.871Z"
          fill="#5F04A7"/>
</svg>
