<svg width="46" height="40" viewBox="0 0 46 40" fill="none" xmlns="http://www.w3.org/2000/svg">
<path fill-rule="evenodd" clip-rule="evenodd" d="M45.8792 34.7208C45.8792 36.1871 44.8905 37.4995 43.3984 38.0142L38.3007 39.7729C35.8013 40.6351 33.135 38.9353 33.135 36.4795V24.4877C33.135 22.0319 35.8013 20.3321 38.3007 21.1943L43.3303 22.9295V21.104C43.3303 10.7436 34.2011 2.34489 22.9396 2.34489C11.678 2.34489 2.54884 10.7436 2.54884 21.104V22.9295L7.57852 21.1943C10.0779 20.3321 12.7442 22.0319 12.7442 24.4877V36.4795C12.7442 38.9353 10.0779 40.6351 7.57852 39.7729L2.48081 38.0142C0.988594 37.4993 0 36.1871 0 34.7208V21.104C0 9.44851 10.2703 0 22.9396 0C35.6089 0 45.8792 9.44851 45.8792 21.104V34.7208ZM35.6838 24.4877C35.6838 23.6691 36.5726 23.1026 37.4058 23.3898L42.5035 25.1485C43.0008 25.3202 43.3303 25.7577 43.3303 26.2464V34.7208C43.3303 35.2095 43.0008 35.6471 42.5035 35.8187L37.4058 37.5774C36.5726 37.8646 35.6838 37.2981 35.6838 36.4795V24.4877ZM2.54884 26.2464C2.54884 25.7577 2.87838 25.3202 3.37579 25.1485L8.47337 23.3898C9.30659 23.1026 10.1954 23.6691 10.1954 24.4877V36.4795C10.1954 37.2981 9.30659 37.8646 8.47337 37.5774L3.37579 35.8187C2.87838 35.6471 2.54884 35.2095 2.54884 34.7208V26.2464Z" fill="#5F04A7" fill-opacity="0.8"/>
</svg>
