<?xml version="1.0" standalone="no"?>
<!DOCTYPE svg PUBLIC "-//W3C//DTD SVG 20010904//EN"
 "http://www.w3.org/TR/2001/REC-SVG-20010904/DTD/svg10.dtd">
<svg version="1.0" xmlns="http://www.w3.org/2000/svg"
 width="512.000000pt" height="512.000000pt" viewBox="0 0 512.000000 512.000000"
 preserveAspectRatio="xMidYMid meet">

<g transform="translate(0.000000,512.000000) scale(0.100000,-0.100000)"
fill="#000000" stroke="none">
<path d="M2389 4680 c-439 -74 -780 -403 -876 -845 -12 -54 -17 -161 -20 -460
l-5 -391 -45 -24 c-178 -94 -350 -297 -423 -497 -57 -158 -62 -217 -57 -691 3
-400 5 -432 25 -511 90 -343 350 -603 698 -699 l99 -27 775 0 775 0 99 27
c348 96 608 356 698 699 20 79 22 111 25 511 5 474 0 533 -57 691 -73 200
-245 403 -424 497 l-46 25 0 335 c0 360 -8 467 -46 600 -112 389 -440 687
-831 755 -89 16 -285 18 -364 5z m338 -436 c171 -44 327 -174 407 -339 57
-116 66 -185 66 -520 l0 -295 -640 0 -640 0 0 301 c0 337 7 392 65 514 90 186
275 323 480 354 71 11 188 4 262 -15z m-53 -2144 c20 -14 49 -43 64 -64 l27
-39 0 -183 0 -182 -30 -44 c-81 -114 -250 -124 -338 -18 -42 49 -49 90 -45
267 3 161 3 161 33 204 45 64 104 91 186 87 50 -3 75 -10 103 -28z"/>
</g>
</svg>
