<svg width="970" height="1349" viewBox="0 0 970 1349" fill="none" xmlns="http://www.w3.org/2000/svg">
<g clip-path="url(#clip0_185_8)">
<path d="M423.5 948.306C423.5 951.282 422.952 953.757 421.861 955.889C420.771 958.022 419.123 959.842 416.881 961.487C412.375 964.792 405.532 967.35 396.161 970.301C393.633 971.097 391.116 972.529 388.59 974.203C387.07 975.21 385.521 976.323 383.957 977.447C382.933 978.182 381.903 978.922 380.87 979.64C375.597 983.308 370.121 986.5 364.106 986.5C345.058 986.5 322.806 977.15 310.941 970.344C300.629 964.429 294.5 956.683 294.5 948.306C294.5 935.679 295.244 921.957 305.161 911.644C312.62 903.888 323.038 904.668 333.213 907.51C337.163 908.614 341.035 910.016 344.65 911.325C345.682 911.699 346.693 912.065 347.679 912.414C352.082 913.975 356.029 915.22 359 915.22C366.159 915.22 373.717 915.266 380.824 915.816C387.935 916.367 394.562 917.421 399.866 919.422C415.898 925.471 423.5 937.401 423.5 948.306Z" stroke="black" stroke-opacity="0.15"/>
<path d="M405.273 942.692L405.297 942.751L405.335 942.802C407.074 945.149 407.263 947.103 406.499 948.806C405.71 950.566 403.857 952.172 401.244 953.662C396.537 956.346 389.662 958.499 383.149 960.539C382.441 960.761 381.737 960.981 381.04 961.201C379.143 961.799 377.051 962.754 374.851 963.835C373.929 964.289 372.992 964.763 372.041 965.244C370.706 965.919 369.341 966.609 367.943 967.28C363.17 969.573 358.246 971.526 353.698 971.526C339.32 971.526 324.816 966.373 315.89 961.244C308.117 956.779 303.533 950.951 303.533 944.677C303.533 935.122 304.099 924.788 311.552 917.025C317.134 911.21 324.938 911.781 332.617 913.93C335.595 914.764 338.515 915.823 341.244 916.813C342.024 917.096 342.789 917.373 343.536 917.638C346.857 918.817 349.858 919.768 352.127 919.768C357.535 919.768 363.238 919.803 368.601 920.218C373.968 920.635 378.959 921.431 382.949 922.939C389.041 925.241 393.551 927.543 397.07 930.576C400.581 933.603 403.136 937.383 405.273 942.692Z" stroke="black" stroke-opacity="0.15"/>
<path d="M254 705.5C286.006 705.5 314.758 716.613 334.608 734.268C351.961 749.702 362.5 770.124 362.5 792.5C362.5 793.82 362.167 794.907 361.554 795.807C360.939 796.711 360.022 797.456 358.81 798.055C356.373 799.259 352.817 799.833 348.41 799.938C339.605 800.147 327.661 798.484 315.115 796.591C313.763 796.387 312.405 796.18 311.043 795.973C299.786 794.262 288.29 792.514 278.419 791.916C272.886 791.581 267.841 791.605 263.62 792.207C259.41 792.807 255.956 793.989 253.668 796.025C248.466 800.652 248.031 808.348 249.609 817.036C251.029 824.859 254.116 833.669 257.082 842.131C257.421 843.098 257.758 844.061 258.091 845.017C261.354 854.383 264.193 863.085 264.245 869.436C264.271 872.602 263.602 875.094 262.035 876.797C260.475 878.492 257.935 879.5 254 879.5C227.629 879.5 203.464 871.955 184.669 859.421C160.71 843.443 145.5 819.378 145.5 792.5C145.5 790.783 146.133 788.912 147.307 786.909C148.479 784.908 150.173 782.807 152.249 780.638C156.402 776.3 162.035 771.747 167.941 767.255C170.421 765.369 172.954 763.491 175.443 761.645C178.862 759.109 182.197 756.636 185.194 754.292C190.365 750.248 194.633 746.513 196.68 743.393C199.77 738.684 202.276 734.465 204.497 730.725C205.558 728.937 206.555 727.259 207.519 725.689C210.511 720.819 213.199 716.978 216.597 714.004C223.367 708.081 233.072 705.5 254 705.5Z" stroke="black" stroke-opacity="0.15"/>
<path d="M259.936 722.827C271.298 722.827 278.348 723.479 284.308 725.666C290.263 727.851 295.176 731.585 302.232 737.861C303.771 739.23 305.432 740.664 307.162 742.158C312.403 746.685 318.275 751.757 323.285 757.186C329.958 764.417 334.98 772.162 334.98 779.938C334.98 780.82 334.706 781.546 334.191 782.156C333.669 782.775 332.878 783.299 331.813 783.723C329.676 784.576 326.558 784.983 322.705 785.057C315.011 785.205 304.604 784.028 293.766 782.688C292.455 782.526 291.139 782.361 289.821 782.197C280.253 781.003 270.581 779.795 262.404 779.378C257.753 779.141 253.563 779.158 250.139 779.585C246.736 780.008 243.998 780.846 242.336 782.324C240.451 784 239.383 786.535 238.868 789.602C238.351 792.672 238.379 796.333 238.735 800.334C239.337 807.081 240.883 814.881 242.409 822.577C242.692 824.004 242.974 825.428 243.25 826.842C245.017 835.904 246.496 844.498 246.133 850.818C245.952 853.979 245.312 856.498 244.079 858.217C242.871 859.902 241.053 860.873 238.351 860.873C233.714 860.873 230.389 860.219 227.801 859.121C225.217 858.025 223.333 856.474 221.593 854.627C220.646 853.622 219.736 852.519 218.775 851.354C216.222 848.26 213.311 844.732 208.411 841.465C206.976 840.508 205.497 839.536 203.993 838.546C196.544 833.649 188.461 828.334 181.845 822.347C173.89 815.147 168.163 807.067 168.163 797.698C168.163 796.575 168.784 795.286 170.015 793.842C171.237 792.409 173.005 790.887 175.173 789.304C179.509 786.14 185.36 782.792 191.416 779.486C193.286 778.465 195.177 777.447 197.047 776.441C201.215 774.198 205.279 772.01 208.785 769.963C211.326 768.479 213.588 767.061 215.396 765.738C217.193 764.424 218.586 763.174 219.344 762.019C222.596 757.062 224.934 752.107 227.068 747.488C227.19 747.224 227.312 746.961 227.432 746.699C229.429 742.372 231.272 738.377 233.572 734.929C236.003 731.284 238.932 728.271 243.063 726.162C247.198 724.051 252.577 722.827 259.936 722.827Z" stroke="black" stroke-opacity="0.15"/>
<path d="M712 1272.5C744.006 1272.5 772.758 1283.61 792.608 1301.27C809.961 1316.7 820.5 1337.12 820.5 1359.5C820.5 1360.82 820.167 1361.91 819.554 1362.81C818.939 1363.71 818.022 1364.46 816.81 1365.05C814.373 1366.26 810.817 1366.83 806.41 1366.94C797.605 1367.15 785.661 1365.48 773.115 1363.59C771.763 1363.39 770.405 1363.18 769.043 1362.97C757.786 1361.26 746.29 1359.51 736.419 1358.92C730.886 1358.58 725.841 1358.61 721.62 1359.21C717.41 1359.81 713.956 1360.99 711.668 1363.02C706.466 1367.65 706.031 1375.35 707.609 1384.04C709.029 1391.86 712.116 1400.67 715.082 1409.13C715.421 1410.1 715.758 1411.06 716.091 1412.02C719.354 1421.38 722.193 1430.08 722.245 1436.44C722.271 1439.6 721.602 1442.09 720.035 1443.8C718.475 1445.49 715.935 1446.5 712 1446.5C685.629 1446.5 661.464 1438.96 642.669 1426.42C618.71 1410.44 603.5 1386.38 603.5 1359.5C603.5 1357.78 604.133 1355.91 605.307 1353.91C606.479 1351.91 608.173 1349.81 610.249 1347.64C614.402 1343.3 620.035 1338.75 625.941 1334.26C628.421 1332.37 630.954 1330.49 633.443 1328.65C636.862 1326.11 640.197 1323.64 643.194 1321.29C648.365 1317.25 652.633 1313.51 654.68 1310.39C657.77 1305.68 660.276 1301.46 662.497 1297.73C663.558 1295.94 664.555 1294.26 665.519 1292.69C668.511 1287.82 671.199 1283.98 674.597 1281C681.367 1275.08 691.072 1272.5 712 1272.5Z" stroke="black" stroke-opacity="0.15"/>
<path d="M717.936 1289.83C729.298 1289.83 736.348 1290.48 742.308 1292.67C748.263 1294.85 753.176 1298.59 760.232 1304.86C761.771 1306.23 763.432 1307.66 765.162 1309.16C770.403 1313.68 776.275 1318.76 781.285 1324.19C787.958 1331.42 792.98 1339.16 792.98 1346.94C792.98 1347.82 792.706 1348.55 792.191 1349.16C791.669 1349.78 790.878 1350.3 789.813 1350.72C787.676 1351.58 784.558 1351.98 780.705 1352.06C773.011 1352.21 762.604 1351.03 751.766 1349.69C750.455 1349.53 749.139 1349.36 747.821 1349.2C738.253 1348 728.581 1346.8 720.404 1346.38C715.753 1346.14 711.563 1346.16 708.139 1346.58C704.736 1347.01 701.998 1347.85 700.336 1349.32C698.451 1351 697.383 1353.53 696.868 1356.6C696.351 1359.67 696.379 1363.33 696.735 1367.33C697.337 1374.08 698.883 1381.88 700.409 1389.58C700.692 1391 700.974 1392.43 701.25 1393.84C703.017 1402.9 704.496 1411.5 704.133 1417.82C703.952 1420.98 703.312 1423.5 702.079 1425.22C700.871 1426.9 699.053 1427.87 696.351 1427.87C691.714 1427.87 688.389 1427.22 685.801 1426.12C683.217 1425.03 681.333 1423.47 679.593 1421.63C678.646 1420.62 677.736 1419.52 676.775 1418.35C674.222 1415.26 671.311 1411.73 666.411 1408.46C664.976 1407.51 663.497 1406.54 661.993 1405.55C654.544 1400.65 646.461 1395.33 639.845 1389.35C631.89 1382.15 626.163 1374.07 626.163 1364.7C626.163 1363.57 626.784 1362.29 628.015 1360.84C629.237 1359.41 631.005 1357.89 633.173 1356.3C637.509 1353.14 643.36 1349.79 649.416 1346.49C651.286 1345.46 653.177 1344.45 655.047 1343.44C659.215 1341.2 663.279 1339.01 666.785 1336.96C669.326 1335.48 671.588 1334.06 673.396 1332.74C675.193 1331.42 676.586 1330.17 677.344 1329.02C680.596 1324.06 682.934 1319.11 685.068 1314.49C685.19 1314.22 685.312 1313.96 685.432 1313.7C687.429 1309.37 689.272 1305.38 691.572 1301.93C694.003 1298.28 696.932 1295.27 701.063 1293.16C705.198 1291.05 710.577 1289.83 717.936 1289.83Z" stroke="black" stroke-opacity="0.15"/>
<path d="M410 1150.5C442.006 1150.5 470.758 1161.61 490.608 1179.27C507.961 1194.7 518.5 1215.12 518.5 1237.5C518.5 1238.82 518.167 1239.91 517.554 1240.81C516.939 1241.71 516.022 1242.46 514.81 1243.05C512.373 1244.26 508.817 1244.83 504.41 1244.94C495.605 1245.15 483.661 1243.48 471.115 1241.59C469.763 1241.39 468.405 1241.18 467.043 1240.97C455.786 1239.26 444.29 1237.51 434.419 1236.92C428.886 1236.58 423.841 1236.61 419.62 1237.21C415.41 1237.81 411.956 1238.99 409.668 1241.02C404.466 1245.65 404.031 1253.35 405.609 1262.04C407.029 1269.86 410.116 1278.67 413.082 1287.13C413.421 1288.1 413.758 1289.06 414.091 1290.02C417.354 1299.38 420.193 1308.08 420.245 1314.44C420.271 1317.6 419.602 1320.09 418.035 1321.8C416.475 1323.49 413.935 1324.5 410 1324.5C383.629 1324.5 359.464 1316.96 340.669 1304.42C316.71 1288.44 301.5 1264.38 301.5 1237.5C301.5 1235.78 302.133 1233.91 303.307 1231.91C304.479 1229.91 306.173 1227.81 308.249 1225.64C312.402 1221.3 318.035 1216.75 323.941 1212.26C326.421 1210.37 328.954 1208.49 331.443 1206.65C334.862 1204.11 338.197 1201.64 341.194 1199.29C346.365 1195.25 350.633 1191.51 352.68 1188.39C355.77 1183.68 358.276 1179.46 360.497 1175.73C361.558 1173.94 362.555 1172.26 363.519 1170.69C366.511 1165.82 369.199 1161.98 372.597 1159C379.367 1153.08 389.072 1150.5 410 1150.5Z" stroke="black" stroke-opacity="0.15"/>
<path d="M415.936 1167.83C427.298 1167.83 434.348 1168.48 440.308 1170.67C446.263 1172.85 451.176 1176.59 458.232 1182.86C459.771 1184.23 461.432 1185.66 463.162 1187.16C468.403 1191.68 474.275 1196.76 479.285 1202.19C485.958 1209.42 490.98 1217.16 490.98 1224.94C490.98 1225.82 490.706 1226.55 490.191 1227.16C489.669 1227.78 488.878 1228.3 487.813 1228.72C485.676 1229.58 482.558 1229.98 478.705 1230.06C471.011 1230.21 460.604 1229.03 449.766 1227.69C448.455 1227.53 447.139 1227.36 445.821 1227.2C436.253 1226 426.581 1224.8 418.404 1224.38C413.753 1224.14 409.563 1224.16 406.139 1224.58C402.736 1225.01 399.998 1225.85 398.336 1227.32C396.451 1229 395.383 1231.53 394.868 1234.6C394.351 1237.67 394.379 1241.33 394.735 1245.33C395.337 1252.08 396.883 1259.88 398.409 1267.58C398.692 1269 398.974 1270.43 399.25 1271.84C401.017 1280.9 402.496 1289.5 402.133 1295.82C401.952 1298.98 401.312 1301.5 400.079 1303.22C398.871 1304.9 397.053 1305.87 394.351 1305.87C389.714 1305.87 386.389 1305.22 383.801 1304.12C381.217 1303.03 379.333 1301.47 377.593 1299.63C376.646 1298.62 375.736 1297.52 374.775 1296.35C372.222 1293.26 369.311 1289.73 364.411 1286.46C362.976 1285.51 361.497 1284.54 359.993 1283.55C352.544 1278.65 344.461 1273.33 337.845 1267.35C329.89 1260.15 324.163 1252.07 324.163 1242.7C324.163 1241.57 324.784 1240.29 326.015 1238.84C327.237 1237.41 329.005 1235.89 331.173 1234.3C335.509 1231.14 341.36 1227.79 347.416 1224.49C349.286 1223.46 351.177 1222.45 353.047 1221.44C357.215 1219.2 361.279 1217.01 364.785 1214.96C367.326 1213.48 369.588 1212.06 371.396 1210.74C373.193 1209.42 374.586 1208.17 375.344 1207.02C378.596 1202.06 380.934 1197.11 383.068 1192.49C383.19 1192.22 383.312 1191.96 383.432 1191.7C385.429 1187.37 387.272 1183.38 389.572 1179.93C392.003 1176.28 394.932 1173.27 399.063 1171.16C403.198 1169.05 408.577 1167.83 415.936 1167.83Z" stroke="black" stroke-opacity="0.15"/>
<circle cx="84.5" cy="704.5" r="27" stroke="black" stroke-opacity="0.15"/>
<circle cx="349.5" cy="1083.5" r="48" stroke="black" stroke-opacity="0.15"/>
<circle cx="-0.5" cy="827.5" r="48" stroke="black" stroke-opacity="0.15"/>
<circle cx="638.5" cy="1186.5" r="48" stroke="black" stroke-opacity="0.15"/>
<path d="M207.384 1120.43C160.949 1142.66 100.276 1113.02 71.9647 1053.89C66.7593 1043.01 63.8213 1025.52 62.2874 1008.03C60.7552 990.566 60.6293 973.181 61.0132 962.573C61.6665 944.52 65.1562 931.766 72.1044 921.776C79.0553 911.781 89.5089 904.492 104.216 897.451C117.742 890.975 132.694 891.184 147.746 895.283C162.801 899.382 177.921 907.364 191.74 916.379C211.346 929.168 228.703 948.658 240.46 973.216C263.988 1022.36 257.635 1076.18 228.142 1105.7C222.158 1111.69 215.221 1116.68 207.384 1120.43Z" stroke="black" stroke-opacity="0.15"/>
<path d="M197.063 1098.02C184.336 1104.12 170.43 1103.16 156.448 1097.42C142.459 1091.67 128.428 1081.14 115.513 1068.15C103.066 1055.62 92.9381 1037.68 86.043 1020.72C82.597 1012.24 79.9631 1004.02 78.2522 996.867C76.5391 989.7 75.7591 983.63 75.9992 979.441C76.8273 964.991 80.5667 953.35 87.1344 943.864C93.703 934.376 103.125 927.008 115.374 921.143C126.562 915.787 136.678 918.886 146.898 925.163C151.949 928.265 156.998 932.127 162.196 936.103L162.391 936.253C167.65 940.275 173.059 944.403 178.736 947.925C182.786 950.438 187.058 952.477 191.366 954.422C192.415 954.895 193.465 955.362 194.514 955.829C197.785 957.286 201.052 958.74 204.256 960.364C212.697 964.643 220.636 970.069 226.77 979.656C245.41 1018.62 239.296 1061.8 214.455 1085.9C209.414 1090.79 203.601 1094.89 197.063 1098.02Z" stroke="black" stroke-opacity="0.15"/>
<path d="M117.87 1025.68C102.788 1012.97 106.624 977.023 110.428 960.637C111.586 955.341 117.572 946.535 132.258 953.685C150.615 962.623 154.584 960.637 163.514 986.457C172.444 1012.28 199 1011.5 205.189 1035.12C209.7 1052.33 210.15 1063.92 178.398 1076.83C146.645 1089.74 136.723 1041.57 117.87 1025.68Z" stroke="black" stroke-opacity="0.08" stroke-width="2"/>
<path d="M870.749 1267.57C851.857 1278.66 830.062 1276.83 810.068 1264.8C790.076 1252.77 771.928 1230.56 760.389 1201C756.141 1190.12 753.745 1172.62 752.494 1155.14C751.244 1137.67 751.142 1120.28 751.455 1109.67C751.988 1091.62 754.835 1078.87 760.491 1068.9C766.145 1058.93 774.648 1051.65 786.631 1044.62C797.622 1038.17 809.786 1038.37 822.058 1042.46C834.329 1046.56 846.657 1054.54 857.927 1063.56C873.916 1076.35 888.074 1095.84 897.664 1120.41C916.862 1169.58 911.659 1223.39 887.642 1252.87C882.771 1258.85 877.126 1263.83 870.749 1267.57Z" stroke="black" stroke-opacity="0.15"/>
<path d="M862.333 1245.16C852 1251.23 840.69 1250.29 829.288 1244.55C817.883 1238.8 806.441 1228.27 795.907 1215.27C785.753 1202.75 777.492 1184.8 771.868 1167.83C766.239 1150.85 763.282 1134.95 763.675 1126.54C764.351 1112.09 767.401 1100.46 772.747 1090.99C778.093 1081.52 785.758 1074.17 795.73 1068.31C804.795 1062.99 813.012 1066.05 821.359 1072.34C825.478 1075.44 829.596 1079.31 833.835 1083.28L833.994 1083.43C838.282 1087.45 842.693 1091.58 847.323 1095.1C850.625 1097.62 854.109 1099.66 857.623 1101.6C858.478 1102.07 859.335 1102.54 860.19 1103.01C862.858 1104.46 865.521 1105.92 868.134 1107.54C875.014 1111.82 881.493 1117.25 886.499 1126.84C901.713 1165.84 896.704 1209.01 876.482 1233.06C872.38 1237.94 867.65 1242.04 862.333 1245.16Z" stroke="black" stroke-opacity="0.15"/>
<path d="M797.759 1172.84C785.46 1160.13 788.589 1124.18 791.691 1107.79C792.635 1102.49 797.517 1093.69 809.492 1100.84C824.461 1109.78 827.698 1107.79 834.98 1133.61C842.263 1159.43 863.918 1158.65 868.965 1182.27C872.644 1199.49 873.011 1211.07 847.118 1223.98C821.225 1236.89 813.133 1188.73 797.759 1172.84Z" stroke="black" stroke-opacity="0.08" stroke-width="2"/>
<path d="M88.8636 637.127C40.2907 615.427 37.3593 567.324 82.4884 529.658C90.7794 522.738 107.13 515.002 124.272 508.142C141.388 501.292 159.197 495.353 170.318 492.018C189.235 486.346 204.276 484.236 218.397 485.233C232.531 486.23 245.815 490.343 261.185 497.21C289.499 509.859 293.359 535.121 290.071 558.58C287.742 575.197 277.285 592.655 258.535 608.305C221.023 639.613 162.184 653.785 115.504 645.206C106.033 643.465 97.0597 640.788 88.8636 637.127Z" stroke="black" stroke-opacity="0.15"/>
<path d="M106.215 623.088C79.5818 611.19 79.408 586.795 91.8867 561.792C97.8887 549.766 110.741 537.366 124.372 527.323C131.183 522.304 138.178 517.882 144.589 514.397C151.009 510.908 156.811 508.377 161.241 507.119C176.548 502.771 190.583 501.193 203.976 502.12C217.374 503.048 230.169 506.485 242.976 512.206C254.7 517.444 257.086 524.858 256.274 533.377C255.872 537.593 254.688 542.064 253.468 546.671L253.422 546.843C252.189 551.502 250.929 556.294 250.44 561.05C250.092 564.443 250.353 567.815 250.732 571.177C250.824 571.995 250.923 572.812 251.022 573.629C251.33 576.175 251.638 578.716 251.736 581.276C251.996 588.018 250.797 594.818 244.345 601.882C214.609 626.682 166.857 637.415 128.318 629.931C120.496 628.413 113.053 626.143 106.215 623.088Z" stroke="black" stroke-opacity="0.15"/>
<path d="M136.86 548.989C141.607 535.23 180.704 525.519 199.659 522.383C205.747 521.325 218.11 522.116 218.864 533.751C219.806 548.294 224.041 550.118 202.412 564.433C180.784 578.747 196.247 595.165 175.37 607.016C160.152 615.654 148.486 619.842 117.673 604.251C86.8611 588.66 130.925 566.188 136.86 548.989Z" stroke="black" stroke-opacity="0.08" stroke-width="2"/>
<path d="M456.177 1072.07C431.133 1052.16 429.525 1007.9 452.944 973.114C457.236 966.74 465.707 959.606 474.597 953.276C483.472 946.955 492.706 941.475 498.471 938.399C508.275 933.168 516.046 931.237 523.319 932.15C530.595 933.064 537.447 936.832 545.405 943.158C552.685 948.946 556.839 957.628 558.957 967.603C561.076 977.58 561.149 988.808 560.298 999.617C559.092 1014.93 553.675 1031.03 543.956 1045.46C524.499 1074.36 494.026 1087.37 469.924 1079.49C465.035 1077.89 460.405 1075.43 456.177 1072.07Z" stroke="black" stroke-opacity="0.15"/>
<path d="M465.177 1059.11C458.338 1053.68 454.88 1045.38 453.943 1035.52C453.006 1025.66 454.6 1014.27 457.831 1002.75C460.94 991.665 467.6 980.229 474.667 970.962C478.199 966.332 481.824 962.254 485.146 959.041C488.475 955.821 491.477 953.493 493.76 952.339C501.685 948.333 508.935 946.888 515.838 947.739C522.742 948.589 529.342 951.741 535.959 957.001C541.944 961.759 543.187 968.501 542.766 976.357C542.558 980.241 541.945 984.363 541.312 988.618L541.288 988.773C540.649 993.073 539.994 997.502 539.74 1001.9C539.559 1005.04 539.695 1008.16 539.891 1011.27C539.939 1012.03 539.991 1012.78 540.042 1013.54C540.202 1015.88 540.361 1018.22 540.412 1020.58C540.547 1026.79 539.928 1033.04 536.592 1039.54C521.172 1062.42 496.453 1072.26 476.575 1065.39C472.54 1064 468.702 1061.92 465.177 1059.11Z" stroke="black" stroke-opacity="0.15"/>
<path d="M480.993 990.835C483.456 978.135 503.737 969.171 513.57 966.276C516.727 965.299 523.14 966.03 523.531 976.769C524.02 990.194 526.217 991.877 514.998 1005.09C503.779 1018.3 511.799 1033.46 500.97 1044.4C493.076 1052.37 487.024 1056.24 471.041 1041.85C455.058 1027.45 477.915 1006.71 480.993 990.835Z" stroke="black" stroke-opacity="0.08" stroke-width="2"/>
<path d="M4.86356 1309.13C-43.7094 1287.43 -46.6407 1239.32 -1.5117 1201.66C6.77934 1194.74 23.13 1187 40.2717 1180.14C57.388 1173.29 75.1974 1167.35 86.3178 1164.02C105.235 1158.35 120.276 1156.24 134.397 1157.23C148.531 1158.23 161.815 1162.34 177.185 1169.21C205.499 1181.86 209.358 1207.12 206.071 1230.58C203.742 1247.2 193.285 1264.66 174.535 1280.3C137.023 1311.61 78.1838 1325.78 31.5037 1317.21C22.0326 1315.47 13.0596 1312.79 4.86356 1309.13Z" stroke="black" stroke-opacity="0.15"/>
<path d="M22.2147 1295.09C-4.41829 1283.19 -4.59211 1258.79 7.88668 1233.79C13.8887 1221.77 26.7414 1209.37 40.3716 1199.32C47.183 1194.3 54.1775 1189.88 60.5886 1186.4C67.0089 1182.91 72.8114 1180.38 77.2406 1179.12C92.5476 1174.77 106.583 1173.19 119.976 1174.12C133.374 1175.05 146.169 1178.49 158.976 1184.21C170.7 1189.44 173.086 1196.86 172.274 1205.38C171.872 1209.59 170.688 1214.06 169.468 1218.67L169.422 1218.84C168.189 1223.5 166.929 1228.29 166.44 1233.05C166.092 1236.44 166.353 1239.82 166.732 1243.18C166.824 1244 166.923 1244.81 167.022 1245.63C167.33 1248.17 167.638 1250.72 167.736 1253.28C167.996 1260.02 166.797 1266.82 160.345 1273.88C130.609 1298.68 82.8565 1309.41 44.3178 1301.93C36.4963 1300.41 29.0529 1298.14 22.2147 1295.09Z" stroke="black" stroke-opacity="0.15"/>
<path d="M52.8595 1220.99C57.6068 1207.23 96.7041 1197.52 115.659 1194.38C121.747 1193.32 134.11 1194.12 134.864 1205.75C135.806 1220.29 140.041 1222.12 118.412 1236.43C96.7842 1250.75 112.247 1267.17 91.37 1279.02C76.1522 1287.65 64.4857 1291.84 33.6734 1276.25C2.86106 1260.66 46.9254 1238.19 52.8595 1220.99Z" stroke="black" stroke-opacity="0.08" stroke-width="2"/>
<path d="M689.882 1048.93C678.264 1063.28 656.009 1063.76 641.522 1052.16C640.77 1046.16 641.528 1043.09 643.055 1041.5C644.602 1039.9 647.089 1039.66 650.292 1039.75C651.024 1039.77 651.788 1039.81 652.575 1039.85C658.517 1040.15 665.828 1040.52 671.235 1033.84C674.307 1030.04 674.852 1026.06 674.383 1022.22C674.034 1019.36 673.111 1016.54 672.263 1013.96C671.987 1013.11 671.719 1012.3 671.482 1011.51C670.492 1008.23 670.054 1005.56 671.306 1003.54C672.543 1001.54 675.559 999.981 682.052 999.31C689.095 1005.08 693.195 1013.12 694.151 1021.52C694.65 1025.9 695.05 1030.95 694.586 1035.82C694.121 1040.69 692.795 1045.34 689.882 1048.93Z" stroke="black" stroke-opacity="0.15"/>
<path d="M317.101 626.103C306.743 616.131 302.938 601.649 304.69 586.554C306.435 571.51 313.698 555.901 325.43 543.661C330.526 543.043 334.354 543.047 337.198 543.548C340.069 544.053 341.899 545.058 343.037 546.402C344.176 547.748 344.679 549.501 344.758 551.621C344.838 553.746 344.491 556.192 343.974 558.875C343.735 560.119 343.459 561.413 343.175 562.744C342.241 567.116 341.222 571.891 341.136 576.605C341.024 582.79 342.51 588.951 347.887 594.128C353.279 599.319 359.664 600.265 366.077 599.52C370.879 598.962 375.757 597.445 380.275 596.04C381.757 595.579 383.199 595.131 384.588 594.732C387.421 593.918 390.027 593.31 392.325 593.191C394.618 593.072 396.553 593.443 398.088 594.536C399.619 595.626 400.827 597.49 401.557 600.514C402.281 603.509 402.525 607.604 402.166 613.114C390.52 625.15 375.876 632.099 361.544 633.647C354.135 634.448 345.621 635.077 337.646 634.24C329.666 633.402 322.292 631.102 317.101 626.103Z" stroke="black" stroke-opacity="0.15"/>
<circle cx="8.5" cy="434.5" r="27" stroke="black" stroke-opacity="0.15"/>
</g>
<defs>
<clipPath id="clip0_185_8">
<rect width="970" height="1349" fill="white"/>
</clipPath>
</defs>
</svg>
