<?xml version="1.0" standalone="no"?>
<!DOCTYPE svg PUBLIC "-//W3C//DTD SVG 20010904//EN"
 "http://www.w3.org/TR/2001/REC-SVG-20010904/DTD/svg10.dtd">
<svg version="1.0" xmlns="http://www.w3.org/2000/svg"
 width="512.000000pt" height="512.000000pt" viewBox="0 0 512.000000 512.000000"
 preserveAspectRatio="xMidYMid meet">

<g transform="translate(0.000000,512.000000) scale(0.100000,-0.100000)"
fill="#000000" stroke="none">
<path d="M950 4321 c-137 -30 -330 -122 -330 -159 0 -10 330 -346 738 -752
765 -763 773 -770 912 -827 177 -71 403 -71 580 0 139 57 147 64 913 827 408
407 737 742 737 752 0 41 -229 145 -370 167 -43 7 -574 11 -1580 10 -1420 0
-1520 -2 -1600 -18z"/>
<path d="M351 3859 c-27 -45 -69 -175 -81 -255 -7 -46 -10 -404 -8 -1089 l3
-1020 23 -75 c91 -300 320 -527 617 -612 l80 -23 1575 0 1575 0 80 23 c300 86
531 317 617 617 l23 80 0 1055 0 1055 -22 77 c-30 102 -68 187 -88 194 -12 5
-209 -185 -743 -718 -752 -749 -787 -781 -947 -860 -160 -80 -303 -112 -495
-112 -192 0 -335 32 -495 112 -160 79 -195 112 -945 859 -399 398 -731 723
-738 723 -7 0 -21 -14 -31 -31z"/>
</g>
</svg>
