<svg width="80" height="44" viewBox="0 0 80 44" fill="none" xmlns="http://www.w3.org/2000/svg">
<path d="M0 1.5C0 0.671574 0.671573 0 1.5 0C2.32843 0 3 0.671573 3 1.5V42.5C3 43.3284 2.32843 44 1.5 44C0.671573 44 0 43.3284 0 42.5V1.5Z" fill="#D9D9D9"/>
<path d="M25 1.5C25 0.671574 25.6716 0 26.5 0C27.3284 0 28 0.671573 28 1.5V42.5C28 43.3284 27.3284 44 26.5 44C25.6716 44 25 43.3284 25 42.5V1.5Z" fill="#D9D9D9"/>
<path d="M51 1.5C51 0.671574 51.6716 0 52.5 0C53.3284 0 54 0.671573 54 1.5V42.5C54 43.3284 53.3284 44 52.5 44C51.6716 44 51 43.3284 51 42.5V1.5Z" fill="#D9D9D9"/>
<path d="M77 1.5C77 0.671574 77.6716 0 78.5 0C79.3284 0 80 0.671573 80 1.5V42.5C80 43.3284 79.3284 44 78.5 44C77.6716 44 77 43.3284 77 42.5V1.5Z" fill="#D9D9D9"/>
<path d="M13 13.5C13 12.6716 13.6716 12 14.5 12C15.3284 12 16 12.6716 16 13.5V30.5C16 31.3284 15.3284 32 14.5 32C13.6716 32 13 31.3284 13 30.5V13.5Z" fill="#D9D9D9"/>
<path d="M38 13.5C38 12.6716 38.6716 12 39.5 12C40.3284 12 41 12.6716 41 13.5V30.5C41 31.3284 40.3284 32 39.5 32C38.6716 32 38 31.3284 38 30.5V13.5Z" fill="#D9D9D9"/>
<path d="M64 13.5C64 12.6716 64.6716 12 65.5 12C66.3284 12 67 12.6716 67 13.5V30.5C67 31.3284 66.3284 32 65.5 32C64.6716 32 64 31.3284 64 30.5V13.5Z" fill="#D9D9D9"/>
</svg>
