<svg width="80" height="44" viewBox="0 0 80 44" fill="none" xmlns="http://www.w3.org/2000/svg">
<path d="M0 13.5C0 12.6716 0.671573 12 1.5 12C2.32843 12 3 12.6716 3 13.5V30.5C3 31.3284 2.32843 32 1.5 32C0.671573 32 0 31.3284 0 30.5V13.5Z" fill="#D9D9D9"/>
<path d="M25 13.5C25 12.6716 25.6716 12 26.5 12C27.3284 12 28 12.6716 28 13.5V30.5C28 31.3284 27.3284 32 26.5 32C25.6716 32 25 31.3284 25 30.5V13.5Z" fill="#D9D9D9"/>
<path d="M51 13.5C51 12.6716 51.6716 12 52.5 12C53.3284 12 54 12.6716 54 13.5V30.5C54 31.3284 53.3284 32 52.5 32C51.6716 32 51 31.3284 51 30.5V13.5Z" fill="#D9D9D9"/>
<path d="M77 13.5C77 12.6716 77.6716 12 78.5 12C79.3284 12 80 12.6716 80 13.5V30.5C80 31.3284 79.3284 32 78.5 32C77.6716 32 77 31.3284 77 30.5V13.5Z" fill="#D9D9D9"/>
<path d="M13 1.5C13 0.671574 13.6716 0 14.5 0C15.3284 0 16 0.671573 16 1.5V42.5C16 43.3284 15.3284 44 14.5 44C13.6716 44 13 43.3284 13 42.5V1.5Z" fill="#D9D9D9"/>
<path d="M38 1.5C38 0.671574 38.6716 0 39.5 0C40.3284 0 41 0.671573 41 1.5V42.5C41 43.3284 40.3284 44 39.5 44C38.6716 44 38 43.3284 38 42.5V1.5Z" fill="#D9D9D9"/>
<path d="M64 1.5C64 0.671574 64.6716 0 65.5 0C66.3284 0 67 0.671573 67 1.5V42.5C67 43.3284 66.3284 44 65.5 44C64.6716 44 64 43.3284 64 42.5V1.5Z" fill="#D9D9D9"/>
</svg>
