<svg width="30" height="31" viewBox="0 0 30 31" fill="none" xmlns="http://www.w3.org/2000/svg">
    <path d="M23.9036 5.97583H5.97589C5.36336 5.97583 4.85541 5.46788 4.85541 4.85535C4.85541 4.24282 5.36336 3.73486 5.97589 3.73486H23.9036C24.5161 3.73486 25.0241 4.24282 25.0241 4.85535C25.0241 5.46788 24.5161 5.97583 23.9036 5.97583Z"
          fill="#5F04A7"/>
    <path d="M19.4217 2.24096H10.4579C9.84532 2.24096 9.33737 1.73301 9.33737 1.12048C9.33737 0.507952 9.84532 0 10.4579 0H19.4217C20.0342 0 20.5422 0.507952 20.5422 1.12048C20.5422 1.73301 20.0342 2.24096 19.4217 2.24096Z"
          fill="#5F04A7"/>
    <path d="M17.7919 22.3513C17.284 22.3513 16.8657 22.7696 16.8657 23.2776C16.8657 23.7855 17.284 24.2038 17.7919 24.2038C18.2999 24.2038 18.7182 23.7855 18.7182 23.2776C18.7182 22.7696 18.2999 22.3513 17.7919 22.3513Z"
          fill="#5F04A7"/>
    <path d="M11.219 24.634C11.219 24.126 10.8007 23.7227 10.2928 23.7227C9.78483 23.7227 9.36652 24.141 9.36652 24.6489C9.36652 25.1569 9.78483 25.5752 10.2928 25.5752C10.8007 25.5602 11.219 25.1419 11.219 24.634Z"
          fill="#5F04A7"/>
    <path d="M23.9036 8.59033H5.9759C2.68916 8.59033 0 11.2795 0 14.5662V25.0241C0 28.3108 2.68916 31 5.9759 31H23.9036C27.1904 31 29.8795 28.3108 29.8795 25.0241V14.5662C29.8795 11.2795 27.1904 8.59033 23.9036 8.59033ZM20.9605 16.7474V23.2761C20.9605 23.306 20.9455 23.3209 20.9455 23.3508C20.9007 25.0539 19.5113 26.4433 17.7933 26.4433C16.0453 26.4433 14.626 25.0241 14.626 23.2761C14.626 21.5282 16.0453 20.1089 17.7933 20.1089C18.1219 20.1089 18.4207 20.1686 18.7195 20.2583V18.2115L13.4607 19.6458V24.6207V24.6356C13.4607 26.3836 12.0414 27.8029 10.2935 27.8029C8.54554 27.8029 7.12627 26.3836 7.12627 24.6356C7.12627 22.8877 8.54554 21.4684 10.2935 21.4684C10.6222 21.4684 10.921 21.5282 11.2198 21.6178V18.7792V16.3889C11.2198 15.0592 12.0414 13.9836 13.3113 13.6549L17.3899 12.5344C18.7046 12.1908 19.5113 12.5344 19.9745 12.893C20.4226 13.2366 20.9605 13.9388 20.9605 15.2684V16.7474Z"
          fill="#5F04A7"/>
</svg>
