<svg width="52" height="49" viewBox="0 0 52 49" fill="none" xmlns="http://www.w3.org/2000/svg">
<path d="M28.7458 0.426186C29.173 0.517714 29.4781 0.802467 32.8341 4.14831C34.8477 6.15175 36.546 7.93145 36.6477 8.12468C36.9121 8.68401 36.8715 9.53827 36.546 10.0773C36.4037 10.3213 34.7663 12.04 32.8951 13.9011C29.3357 17.4503 29.0306 17.6842 28.1865 17.6944C27.739 17.6944 26.8543 17.3283 26.5899 17.0232C26.2949 16.6876 26 15.935 26 15.5079C26 14.7655 26.3356 14.2774 27.9119 12.6909L29.3967 11.1858H22.9999C15.9015 11.1858 15.2099 11.2366 13.4404 11.796C7.96907 13.5553 4.33847 18.4775 4.33847 24.1624C4.33847 26.0132 4.72492 27.7116 5.50799 29.3388C5.9758 30.3049 6.52496 31.1083 7.43007 32.1659C8.40637 33.3049 8.60976 33.9863 8.24365 34.8609C7.77584 35.9999 6.42327 36.5186 5.3046 36.0101C4.43 35.6135 2.58928 33.2338 1.56213 31.1693C-0.604022 26.7963 -0.512494 21.0708 1.80621 16.4639C4.02321 12.0299 8.06059 8.73486 12.8099 7.47381C14.976 6.89414 15.0472 6.89414 22.4813 6.84329L29.3865 6.79244L27.9018 5.30766C26.3254 3.72118 26.0102 3.2432 26 2.48047C26 1.57537 26.7322 0.67026 27.678 0.416016C28.1357 0.29398 28.1255 0.29398 28.7458 0.426186Z" fill="black"/>
<path d="M46.6954 12.396C47.57 12.7926 49.4107 15.1723 50.4379 17.2368C52.604 21.6098 52.5125 27.3353 50.1938 31.9422C47.9768 36.3762 43.9394 39.6712 39.1901 40.9323C37.024 41.512 36.9528 41.512 29.5187 41.5628L22.6135 41.6137L24.0982 43.0984C26.0712 45.0815 26.3254 45.6714 25.7457 46.8511C25.2881 47.7562 24.3525 48.2036 23.3457 47.9901C22.8067 47.8782 22.7558 47.8375 19.1659 44.2578C17.1523 42.2544 15.454 40.4746 15.3523 40.2814C15.0879 39.7221 15.1285 38.8678 15.454 38.3288C15.5963 38.0848 17.2337 36.3661 19.1049 34.505C22.6643 30.9558 22.9694 30.7219 23.8135 30.7117C24.261 30.7117 25.1457 31.0778 25.4101 31.3829C25.7051 31.7185 26 32.4711 26 32.8982C26 33.6406 25.6644 34.1287 24.0881 35.7152L22.6033 37.2203H29.0001C33.912 37.2203 35.6612 37.1797 36.4748 37.078C39.7596 36.6305 43.0038 34.7491 45.0276 32.0846C48.2615 27.8235 48.5565 21.9962 45.7394 17.7453C45.5157 17.4097 44.9971 16.7283 44.5699 16.2402C43.5936 15.1012 43.3902 14.4198 43.7563 13.5452C44.2242 12.4062 45.5767 11.8875 46.6954 12.396Z" fill="black"/>
</svg>
