<?xml version="1.0" standalone="no"?>
<!DOCTYPE svg PUBLIC "-//W3C//DTD SVG 20010904//EN"
 "http://www.w3.org/TR/2001/REC-SVG-20010904/DTD/svg10.dtd">
<svg version="1.0" xmlns="http://www.w3.org/2000/svg"
 width="512.000000pt" height="512.000000pt" viewBox="0 0 512.000000 512.000000"
 preserveAspectRatio="xMidYMid meet">

<g transform="translate(0.000000,512.000000) scale(0.100000,-0.100000)"
fill="#000000" stroke="none">
<path d="M1825 4785 c-802 -128 -1398 -742 -1496 -1539 -18 -149 -6 -412 25
-557 100 -469 370 -864 766 -1121 613 -398 1424 -373 2003 61 37 28 71 51 75
51 4 0 304 -297 667 -661 365 -365 677 -669 697 -680 107 -55 230 20 230 142
0 30 -7 59 -18 76 -9 16 -313 326 -673 691 -361 365 -657 667 -659 672 -2 4
18 36 44 71 296 388 414 918 314 1403 -90 436 -346 829 -710 1088 -187 133
-441 241 -676 289 -142 28 -454 36 -589 14z m542 -334 c289 -63 523 -190 729
-395 206 -207 331 -437 396 -734 31 -140 31 -424 0 -564 -65 -297 -189 -526
-397 -733 -207 -207 -436 -331 -733 -397 -139 -31 -423 -31 -564 0 -296 65
-526 189 -733 397 -210 209 -343 459 -402 752 -24 122 -24 404 0 526 97 486
421 883 871 1068 104 43 255 84 361 98 109 15 365 5 472 -18z"/>
<path d="M2015 4146 c-96 -42 -124 -171 -54 -251 36 -40 68 -51 174 -59 253
-17 476 -149 615 -363 77 -117 115 -235 129 -398 9 -102 20 -129 75 -169 39
-29 133 -29 172 0 47 35 67 70 72 127 5 68 -13 209 -39 307 -24 86 -102 256
-150 326 -177 257 -456 433 -759 479 -117 18 -195 18 -235 1z"/>
</g>
</svg>
