<svg width="27" height="31" viewBox="0 0 27 31" fill="none" xmlns="http://www.w3.org/2000/svg">
    <path d="M26.6421 7.28138V8.96631C26.6421 10.3776 26.0805 11.5873 25.0868 12.293C24.4674 12.7538 23.7041 12.9698 22.9121 12.9698C22.4224 12.9698 21.9329 12.8978 21.4289 12.725L13.6811 10.1472V24.1595C13.6811 27.9326 10.6135 31 6.84052 31C3.06743 31 0 27.9326 0 24.1595C0 20.3864 3.06743 17.319 6.84052 17.319C8.65506 17.319 10.2969 18.039 11.5209 19.1911V3.99794C11.5209 2.60103 12.097 1.39134 13.0907 0.671283C14.0842 -0.0343704 15.4091 -0.192782 16.734 0.23925L23.0994 2.37061C25.058 3.01866 26.6421 5.22203 26.6421 7.28138Z"
          fill="#5F04A7"/>
</svg>
